<svg xmlns="http://www.w3.org/2000/svg" version="1.1" xmlns:xlink="http://www.w3.org/1999/xlink" xmlns:svgjs="http://svgjs.com/svgjs" height="150.0540008544922" width="300.3800048828125"><defs id="SvgjsDefs1581"></defs><g id="SvgjsG1582" rel="mainfill" name="main_text" xmlns:name="main_text" transform="translate(-1.309999942779541,-159.26600646972656)" fill="#ffffff"><path d="M1.31 230.95Q1.31 232.94 1.86 234.61Q2.41 236.28 3.37 237.54Q4.34 238.80 5.70 239.50Q7.06 240.21 8.69 240.21Q14.60 240.21 25.06 232.41Q24.49 230.84 23.39 230.06Q19.67 231.31 17.29 232.10Q14.91 232.88 13.37 233.33Q11.83 233.77 10.88 233.90Q9.94 234.04 9.10 234.04Q8.16 234.04 7.22 233.88Q7.48 225.92 10.20 221.84Q13.08 221.74 14.94 221.71Q16.80 221.69 17.37 221.69Q19.15 221.69 20.72 221.40Q22.29 221.11 23.76 220.54Q23.76 217.81 22.29 217.81Q20.30 217.81 19.15 217.81Q18.05 217.81 17.48 217.84Q16.90 217.87 16.69 217.87Q16.48 217.87 16.33 217.87Q14.18 217.87 11.62 217.40Q12.19 215.67 12.61 213.63Q13.03 211.59 13.92 209.81Q22.19 209.55 25.98 209.15Q29.77 208.76 29.77 207.51Q29.77 206.98 29.51 206.46Q29.09 205.78 28.18 205.15Q27.26 204.52 26.14 204.08Q25.01 203.63 23.76 203.37Q22.50 203.11 21.35 203.11Q18.16 203.11 15.12 203.48Q12.09 203.84 9.58 204.31Q7.06 204.79 5.36 205.26Q3.66 205.73 3.14 205.94Q5.70 208.50 8.90 209.29Q8.74 214.26 6.28 217.97Q4.45 218.18 3.35 219.28Q3.35 220.74 3.30 222.21Q3.24 223.67 3.06 225.14Q2.88 226.60 2.46 228.07Q2.04 229.54 1.31 230.95ZM34.22 223.15Q32.81 224.36 32.81 225.72Q32.81 226.55 33.38 227.55Q32.39 230.16 32.39 232.73Q32.39 235.55 33.64 238.06L35.21 238.38Q35.21 239.37 35.37 240L35.63 240.31Q38.09 240.31 40.66 239.95Q43.22 239.58 45.29 238.72Q47.35 237.85 48.69 236.36Q50.02 234.87 50.02 232.57Q50.02 231.73 49.55 231.03Q49.08 230.32 48.32 229.82Q47.56 229.33 46.59 229.06Q45.63 228.80 44.63 228.80Q45.73 226.87 45.73 225.51Q45.73 222.73 40.87 222.73Q40.29 222.73 39.58 222.84Q38.88 222.94 38.14 223.05Q37.41 223.15 36.76 223.26Q36.10 223.36 35.63 223.36Q35.27 223.36 34.90 223.28Q34.53 223.20 34.22 223.15M46.46 233.30Q43.80 237.23 39.03 237.38Q38.88 236.81 38.75 236.44Q38.62 236.08 38.04 236.08Q37.25 236.08 36.63 236.39Q36.00 235.40 35.82 234.38Q35.63 233.35 35.63 232.31Q35.89 232.36 36.47 232.39Q37.05 232.41 37.31 232.41Q37.88 232.41 38.35 232.26Q38.82 232.10 39.30 231.92Q39.77 231.73 40.26 231.58Q40.76 231.42 41.34 231.42Q44.58 231.42 46.46 233.30M42.54 226.24Q42.17 226.97 41.70 227.60Q41.23 228.23 40.55 228.65L36.21 229.48Q36.21 227.08 37.05 226.21Q37.88 225.35 39.56 225.35Q41.34 225.35 42.54 226.24ZM52.64 234.61Q52.64 236.23 54.26 236.86L56.30 237.70Q56.20 239.69 56.12 241.28Q56.04 242.88 56.04 244.24Q56.04 245.08 56.14 245.94Q56.25 246.80 56.48 247.53Q56.72 248.27 57.03 248.74Q57.35 249.21 57.82 249.21Q58.71 249.21 59.49 248.48Q59.86 244.19 59.96 238.69Q60.70 238.80 61.32 238.85Q61.95 238.90 62.58 238.90Q64.20 238.90 65.72 238.46Q67.24 238.01 68.39 237.15Q69.54 236.28 70.22 234.98Q70.90 233.67 70.90 231.99Q70.90 229.85 70.09 228.15Q69.28 226.45 67.79 225.27Q66.30 224.09 64.23 223.47Q62.16 222.84 59.70 222.84Q58.92 222.84 57.95 222.92Q56.98 222.99 56.12 223.26Q55.25 223.52 54.68 223.99Q54.10 224.46 54.10 225.19Q54.10 225.40 54.31 225.64Q54.52 225.87 54.89 225.87Q55.83 225.87 56.85 225.79Q57.87 225.72 59.07 225.72Q56.88 229.80 56.62 233.51L53.16 232.36Q52.64 233.56 52.64 234.61M60.23 231.05Q60.23 229.85 60.12 228.59Q60.02 227.34 59.81 225.98Q67.08 227.86 67.08 231.52Q67.08 233.30 65.85 234.06Q64.62 234.82 63.05 234.82Q61.74 234.82 60.07 234.14Q60.23 232.67 60.23 231.05ZM80.53 223.73Q80.53 224.25 80.16 224.62Q79.11 226.08 78.46 227.08Q77.81 228.07 77.28 228.88Q76.76 229.69 76.32 230.50Q75.87 231.31 75.29 232.41L74.88 232.41Q74.20 232.41 73.67 232.57L73.67 233.15Q74.41 233.72 74.61 234.51Q73.52 236.49 73.52 237.91Q73.52 238.80 73.91 239.56Q74.30 240.31 75.24 240.31Q75.92 240.31 76.32 239.71Q76.71 239.11 76.76 238.85Q76.81 238.48 76.86 237.93Q76.92 237.38 77.07 236.86Q77.23 236.34 77.47 236.00Q77.70 235.66 78.07 235.66L81.78 235.66L81.94 235.87L82.15 238.33Q82.46 239.22 82.99 239.50Q83.51 239.79 84.24 239.79Q84.50 239.79 84.58 239.37Q84.66 238.95 84.66 238.64Q84.66 235.34 84.37 232.54Q84.09 229.74 83.67 227.70Q83.25 225.66 82.75 224.51Q82.25 223.36 81.78 223.36Q81.16 223.36 80.89 223.44Q80.63 223.52 80.53 223.73M79.38 232.20Q79.79 231.00 80.13 230.24Q80.47 229.48 80.95 228.91Q81.36 229.64 81.50 230.50Q81.63 231.37 81.63 232.15Q81.00 232.31 80.42 232.31Q80.16 232.31 79.90 232.28Q79.64 232.26 79.38 232.20ZM100.36 225.45Q100.36 224.36 99.78 223.70Q99.21 223.05 98.34 222.71Q97.48 222.37 96.43 222.24Q95.39 222.11 94.45 222.11Q93.82 222.11 92.90 222.16Q91.99 222.21 91.15 222.37Q90.31 222.52 89.74 222.89Q89.16 223.26 89.16 223.88Q89.16 224.67 89.95 225.19L90.10 225.30L91.04 225.30L91.88 224.62L95.28 223.88Q95.70 223.88 96.43 224.22Q97.17 224.56 97.17 225.19Q97.17 225.72 96.77 226.21Q96.38 226.71 95.81 227.15Q95.23 227.60 94.47 228.02Q93.71 228.44 93.03 228.75Q92.56 228.96 92.56 229.38Q92.56 229.43 92.59 229.69Q92.61 229.95 92.67 230.01Q93.77 230.79 94.68 231.21Q95.60 231.63 96.22 231.99Q96.85 232.36 97.22 232.78Q97.59 233.20 97.59 234.04Q97.59 235.24 96.88 236.31Q96.17 237.38 95.15 238.19Q94.13 239.01 92.98 239.48Q91.83 239.95 90.94 239.95Q89.95 239.95 89.32 239.27Q88.85 238.80 88.61 238.67Q88.38 238.53 88.11 238.48L87.28 238.90L87.43 239.90Q87.49 240.68 88.25 241.20Q89.00 241.73 90.31 241.73Q91.10 241.73 92.22 241.44Q93.35 241.15 94.55 240.63Q95.75 240.10 96.96 239.35Q98.16 238.59 99.10 237.70Q100.04 236.81 100.65 235.76Q101.25 234.72 101.25 233.62Q101.25 232.83 100.91 232.26Q100.57 231.68 99.94 231.24Q99.31 230.79 98.47 230.45Q97.64 230.11 96.64 229.74L95.70 228.96Q96.54 228.59 97.38 228.17Q98.21 227.76 98.87 227.29Q99.52 226.81 99.94 226.34Q100.36 225.87 100.36 225.45ZM103.86 233.62Q103.86 234.66 104.02 235.79Q104.18 236.91 104.62 237.85Q105.07 238.80 105.90 239.40Q106.74 240 108.15 240Q109.46 240 111.01 238.77Q112.55 237.54 114.33 234.87L114.59 235.76Q114.70 236.44 114.75 237.10Q114.80 237.75 114.80 238.38Q114.80 239.22 115.22 239.71Q115.64 240.21 116.47 240.21Q117.99 240.21 117.99 238.33Q117.99 236.60 117.81 235.19Q117.63 233.77 117.31 232.44Q117.00 231.10 116.53 229.77Q116.06 228.44 115.48 226.87Q115.17 225.72 114.75 225.72Q114.43 225.72 114.12 226.32Q113.81 226.92 113.39 227.97Q112.81 230.11 112.37 231.73Q111.92 233.35 111.45 234.48Q110.98 235.60 110.38 236.18Q109.78 236.76 108.83 236.76Q107.95 236.76 107.58 236.31Q107.21 235.87 107.21 234.72Q107.21 232.20 107.53 230.40Q107.84 228.59 108.29 227.29Q108.73 225.98 109.12 225.14Q109.51 224.30 109.67 223.73Q109.51 222.79 108.99 222.79Q108.73 222.79 108.36 223.05Q103.86 228.07 103.86 233.62ZM134.84 225.66Q133.64 223.52 131.67 222.55Q129.71 221.58 127.36 221.58Q125.53 221.58 124.40 222.60Q123.28 223.62 123.28 225.77Q123.28 228.91 125.34 231.16Q127.41 233.41 130.97 234.82Q129.29 235.87 127.75 236.31Q126.21 236.76 124.85 236.76Q124.79 236.76 124.69 236.76Q124.58 236.76 124.24 236.73Q123.90 236.70 123.22 236.68Q122.54 236.65 121.34 236.60Q121.08 236.60 120.84 237.04Q120.61 237.49 120.61 239.06Q120.61 239.22 120.79 239.37Q120.97 239.53 121.47 239.66Q121.97 239.79 122.88 239.87Q123.80 239.95 125.32 239.95Q125.84 239.95 127.04 239.58Q128.25 239.22 129.56 238.72Q130.86 238.22 132.04 237.70Q133.22 237.17 133.74 236.91Q133.69 237.12 133.69 237.33Q133.69 237.49 133.69 237.65Q133.69 239.84 135.47 239.84Q136.51 239.84 136.51 239.22Q136.51 238.80 136.51 237.70Q136.51 236.55 136.49 235.06Q136.46 233.56 136.44 231.89Q136.41 230.22 136.38 228.67Q136.36 227.13 136.36 225.87Q136.36 224.62 136.36 224.04L134.89 224.77L134.89 225.66L134.84 225.66M133.85 233.46Q133.11 233.46 131.81 232.94Q130.50 232.41 129.24 231.55Q127.99 230.69 127.04 229.51Q126.10 228.33 126.10 227.08Q126.10 225.77 127.57 225.45Q132.96 226.08 133.85 233.46ZM157.44 204.84Q157.44 205.36 158.07 205.65Q158.70 205.94 158.96 205.94Q159.54 205.94 160.22 205.75Q160.90 205.57 161.47 205.31Q159.22 204.73 159.22 204.16Q159.22 203.79 160.37 203.56Q161.53 203.32 162.94 203.16Q164.35 203.01 165.66 202.95Q166.97 202.90 167.28 202.90Q170.16 202.90 173.87 203.61Q177.59 204.31 181.49 205.68Q185.39 207.04 189.15 209.02Q192.92 211.01 195.85 213.52Q198.78 216.04 200.59 219.10Q202.39 222.16 202.39 225.61Q202.39 228.85 200.56 230.95Q198.73 233.04 196.03 234.27Q193.34 235.50 190.33 235.97Q187.32 236.44 184.97 236.44Q184.23 236.44 183.37 236.26Q182.51 236.08 180.73 235.66Q180.73 234.19 180.70 232.31Q180.68 230.42 180.65 228.67Q180.62 226.92 180.62 225.56Q180.62 224.20 180.62 223.67Q183.08 223.67 185.28 223.96Q187.48 224.25 189.10 224.67Q190.72 225.09 191.66 225.64Q192.61 226.19 192.61 226.66Q192.55 227.55 191.72 227.97Q190.88 228.38 190.15 228.70Q191.14 229.17 192.14 229.17Q192.76 229.17 193.44 228.85Q194.12 228.54 194.67 228.02Q195.22 227.49 195.56 226.84Q195.90 226.19 195.90 225.56Q195.90 224.20 195.09 223.20Q194.28 222.21 193.00 221.53Q191.72 220.85 190.12 220.40Q188.52 219.96 187.01 219.72Q185.49 219.49 184.21 219.41Q182.93 219.33 182.19 219.33L180.68 219.44L180.57 216.30Q180.52 214.31 180.05 212.95Q179.58 211.59 178.27 210.65Q177.80 211.85 177.43 213.31Q177.07 214.78 176.86 216.14Q176.65 217.50 176.52 218.52Q176.39 219.54 176.39 219.75Q174.66 220.22 172.54 220.64Q170.42 221.06 168.56 221.74Q166.71 222.42 165.45 223.47Q164.19 224.51 164.19 226.29Q164.19 227.97 164.93 229.40Q165.66 230.84 166.81 231.99Q167.96 233.15 169.35 234.04Q170.73 234.92 172.04 235.55Q173.35 236.18 174.40 236.52Q175.44 236.86 175.91 236.97Q175.91 238.27 176.31 239.32Q176.70 240.37 177.33 241.10L180.00 241.10Q180.26 240.21 180.34 239.76Q180.41 239.32 180.52 238.90Q184.23 239.74 187.95 239.74Q191.25 239.74 194.67 238.95Q198.10 238.17 200.90 236.47Q203.70 234.77 205.50 232.10Q207.31 229.43 207.31 225.61Q207.31 221.58 205.32 218.08Q203.33 214.57 200.09 211.67Q196.84 208.76 192.74 206.51Q188.63 204.26 184.42 202.72Q180.21 201.18 176.23 200.36Q172.25 199.55 169.32 199.55Q167.70 199.55 165.63 199.74Q163.57 199.92 161.76 200.47Q159.96 201.02 158.70 202.06Q157.44 203.11 157.44 204.84M176.18 223.78Q176.12 224.77 176.07 226.40Q176.02 228.02 175.97 229.64Q175.91 231.26 175.89 232.52Q175.86 233.77 175.86 233.98Q174.50 233.51 172.75 232.78Q171.00 232.05 169.43 231.05Q167.86 230.06 166.76 228.83Q165.66 227.60 165.66 226.19Q165.66 225.66 166.31 225.27Q166.97 224.88 167.99 224.59Q169.01 224.30 170.26 224.15Q171.52 223.99 172.70 223.91Q173.87 223.83 174.82 223.81Q175.76 223.78 176.18 223.78ZM209.93 234.61Q209.93 236.23 211.55 236.86L213.59 237.70Q213.48 239.69 213.41 241.28Q213.33 242.88 213.33 244.24Q213.33 245.08 213.43 245.94Q213.54 246.80 213.77 247.53Q214.01 248.27 214.32 248.74Q214.63 249.21 215.11 249.21Q216.00 249.21 216.78 248.48Q217.15 244.19 217.25 238.69Q217.98 238.80 218.61 238.85Q219.24 238.90 219.87 238.90Q221.49 238.90 223.01 238.46Q224.52 238.01 225.68 237.15Q226.83 236.28 227.51 234.98Q228.19 233.67 228.19 231.99Q228.19 229.85 227.38 228.15Q226.56 226.45 225.07 225.27Q223.58 224.09 221.52 223.47Q219.45 222.84 216.99 222.84Q216.20 222.84 215.24 222.92Q214.27 222.99 213.41 223.26Q212.54 223.52 211.97 223.99Q211.39 224.46 211.39 225.19Q211.39 225.40 211.60 225.64Q211.81 225.87 212.18 225.87Q213.12 225.87 214.14 225.79Q215.16 225.72 216.36 225.72Q214.16 229.80 213.90 233.51L210.45 232.36Q209.93 233.56 209.93 234.61M217.51 231.05Q217.51 229.85 217.41 228.59Q217.30 227.34 217.09 225.98Q224.37 227.86 224.37 231.52Q224.37 233.30 223.14 234.06Q221.91 234.82 220.34 234.82Q219.03 234.82 217.36 234.14Q217.51 232.67 217.51 231.05ZM230.80 233.62Q230.80 234.66 230.96 235.79Q231.12 236.91 231.56 237.85Q232.01 238.80 232.84 239.40Q233.68 240 235.09 240Q236.40 240 237.95 238.77Q239.49 237.54 241.27 234.87L241.53 235.76Q241.63 236.44 241.69 237.10Q241.74 237.75 241.74 238.38Q241.74 239.22 242.16 239.71Q242.58 240.21 243.41 240.21Q244.93 240.21 244.93 238.33Q244.93 236.60 244.75 235.19Q244.56 233.77 244.25 232.44Q243.94 231.10 243.47 229.77Q242.99 228.44 242.42 226.87Q242.11 225.72 241.69 225.72Q241.37 225.72 241.06 226.32Q240.74 226.92 240.33 227.97Q239.75 230.11 239.31 231.73Q238.86 233.35 238.39 234.48Q237.92 235.60 237.32 236.18Q236.72 236.76 235.77 236.76Q234.88 236.76 234.52 236.31Q234.15 235.87 234.15 234.72Q234.15 232.20 234.47 230.40Q234.78 228.59 235.22 227.29Q235.67 225.98 236.06 225.14Q236.45 224.30 236.61 223.73Q236.45 222.79 235.93 222.79Q235.67 222.79 235.30 223.05Q230.80 228.07 230.80 233.62ZM254.56 223.73Q254.56 224.25 254.19 224.62Q252.31 227.81 251.03 230.11Q249.74 232.41 248.99 233.98Q248.23 235.55 247.89 236.49Q247.55 237.44 247.55 237.91Q247.55 238.80 247.94 239.56Q248.33 240.31 249.27 240.31Q249.95 240.31 250.35 239.71Q250.74 239.11 250.79 238.85Q250.84 238.27 250.97 237.36Q251.10 236.44 251.52 235.97Q251.79 235.24 252.28 234.14Q252.78 233.04 253.30 231.97Q253.83 230.90 254.30 230.03Q254.77 229.17 254.98 228.91L256.18 238.33Q256.49 239.22 257.02 239.50Q257.54 239.79 258.27 239.79Q258.53 239.79 258.61 239.37Q258.69 238.95 258.69 238.64Q258.69 235.34 258.40 232.54Q258.12 229.74 257.70 227.70Q257.28 225.66 256.78 224.51Q256.28 223.36 255.81 223.36Q255.19 223.36 254.92 223.44Q254.66 223.52 254.56 223.73Z" fill="#ffffff" style="fill: rgb(255, 255, 255);"></path></g><g id="SvgjsG1583" rel="mainfill" name="slogan_text" xmlns:name="slogan_text" transform="translate(27.27500581741333,-117.73599243164062)" fill="#ffffff"><path d="M8.59 220.38L8.59 218.55L1.77 218.55L1.77 240L3.76 240L3.76 220.38ZM12.90 225.62L11.10 225.62L11.10 245.79L12.90 245.79L12.90 238.84C13.57 239.68 14.25 240.23 15.37 240.23C18.65 240.23 18.75 235.63 18.75 232.54C18.75 229.93 18.72 225.40 15.18 225.40C14.15 225.40 13.51 225.79 12.90 226.59ZM16.88 232.06C16.88 233.18 16.88 234.31 16.79 235.43C16.66 236.69 16.47 238.75 14.79 238.75C14.31 238.75 13.96 238.62 13.64 238.26C12.74 237.36 12.74 233.99 12.74 232.73C12.74 229.87 12.90 226.85 14.76 226.85C16.85 226.85 16.88 230.61 16.88 232.06ZM28.91 225.62L27.01 225.62L24.92 234.50C24.70 235.43 24.47 236.30 24.34 237.20C24.18 236.01 23.96 234.79 23.67 233.60L21.87 225.62L20.04 225.62L23.44 239.61L21.84 245.79L23.77 245.79ZM34.76 232.57C35.34 232.31 35.83 231.93 36.15 231.51C36.66 230.80 36.76 229.97 36.76 229.29C36.76 228.33 36.53 227.26 35.70 226.40C34.89 225.59 33.99 225.40 33.03 225.40C32.22 225.40 31.19 225.59 30.23 226.56L30.23 228.87C30.49 228.49 30.87 228.00 31.26 227.68C31.68 227.33 32.19 227.10 32.80 227.10C33.41 227.10 33.99 227.33 34.35 227.72C34.89 228.29 34.93 229.03 34.93 229.55C34.93 230.09 34.86 230.83 34.25 231.32C33.83 231.64 33.06 231.83 32.45 231.83L31.84 231.83L31.84 233.57L32.38 233.57C32.83 233.57 33.93 233.60 34.51 234.08C34.99 234.47 35.28 235.24 35.28 236.08C35.28 236.62 35.05 237.40 34.64 237.85C34.28 238.23 33.64 238.52 32.83 238.52C32.19 238.52 31.68 238.30 31.26 238.01C30.87 237.72 30.36 237.17 30.07 236.78L30.07 239.10C31.13 240.03 32.16 240.23 33.09 240.23C34.19 240.23 35.09 240 35.95 239.20C36.57 238.62 37.27 237.59 37.27 236.04C37.27 234.85 36.92 233.99 36.24 233.38C35.86 233.02 35.34 232.73 34.76 232.57ZM47.37 232.89C47.37 230.13 47.08 225.40 43.35 225.40C39.65 225.40 39.14 230.00 39.14 232.80C39.14 235.59 39.65 240.23 43.35 240.23C47.05 240.23 47.37 235.63 47.37 232.89ZM45.51 232.80C45.51 234.24 45.44 238.52 43.32 238.52C41.13 238.52 41.04 234.47 41.04 232.96C41.04 231.45 41.10 227.07 43.32 227.07C45.44 227.07 45.51 231.35 45.51 232.80ZM57.34 240L57.34 225.62L50.07 225.62L50.07 240L51.87 240L51.87 227.30L55.54 227.30L55.54 240ZM65.99 235.11C65.96 236.33 65.73 238.52 64.13 238.52C62.07 238.52 61.84 234.95 61.84 233.50L61.84 233.18L67.92 233.18C67.92 232.89 67.95 232.57 67.95 232.28C67.95 229.74 67.44 225.40 64.06 225.40C60.56 225.40 60.01 230.26 60.01 232.86C60.01 235.63 60.49 240.23 64.19 240.23C67.02 240.23 67.73 237.43 67.82 235.11ZM61.87 231.64C61.94 230.32 62.23 227.07 64.09 227.07C65.93 227.07 66.09 230.35 66.15 231.64ZM72.42 225.62L70.62 225.62L70.62 245.79L72.42 245.79L72.42 238.84C73.10 239.68 73.77 240.23 74.90 240.23C78.18 240.23 78.28 235.63 78.28 232.54C78.28 229.93 78.24 225.40 74.71 225.40C73.68 225.40 73.03 225.79 72.42 226.59ZM76.41 232.06C76.41 233.18 76.41 234.31 76.31 235.43C76.19 236.69 75.99 238.75 74.32 238.75C73.84 238.75 73.48 238.62 73.16 238.26C72.26 237.36 72.26 233.99 72.26 232.73C72.26 229.87 72.42 226.85 74.29 226.85C76.38 226.85 76.41 230.61 76.41 232.06ZM86.38 235.11C86.35 236.33 86.12 238.52 84.52 238.52C82.46 238.52 82.23 234.95 82.23 233.50L82.23 233.18L88.31 233.18C88.31 232.89 88.34 232.57 88.34 232.28C88.34 229.74 87.83 225.40 84.45 225.40C80.95 225.40 80.40 230.26 80.40 232.86C80.40 235.63 80.88 240.23 84.58 240.23C87.41 240.23 88.12 237.43 88.21 235.11ZM82.26 231.64C82.33 230.32 82.62 227.07 84.48 227.07C86.32 227.07 86.48 230.35 86.54 231.64ZM91.01 225.62L91.01 240L94.32 240C95.10 240 96.32 239.90 97.25 238.97C98.12 238.10 98.22 237.07 98.22 235.98C98.22 235.18 98.22 234.15 97.31 233.28C96.93 232.89 96.35 232.60 95.77 232.47C96.32 232.22 96.67 231.93 96.83 231.77C97.54 231.09 97.76 230.38 97.76 229.32C97.76 227.78 97.22 226.98 96.83 226.59C96.00 225.72 94.90 225.62 93.87 225.62ZM92.81 231.67L92.81 227.30L93.84 227.30C94.07 227.30 94.97 227.33 95.42 227.75C95.80 228.10 95.90 228.87 95.90 229.45C95.90 230.09 95.80 230.77 95.42 231.16C94.90 231.67 94.03 231.67 93.55 231.67ZM92.81 238.33L92.81 233.38L93.68 233.38C94.16 233.38 95.00 233.41 95.61 233.99C95.90 234.28 96.29 234.85 96.29 236.01C96.29 236.94 96.00 237.52 95.67 237.81C95.16 238.30 94.13 238.33 93.68 238.33ZM108.47 232.89C108.47 230.13 108.18 225.40 104.45 225.40C100.76 225.40 100.24 230.00 100.24 232.80C100.24 235.59 100.76 240.23 104.45 240.23C108.15 240.23 108.47 235.63 108.47 232.89ZM106.61 232.80C106.61 234.24 106.54 238.52 104.42 238.52C102.24 238.52 102.14 234.47 102.14 232.96C102.14 231.45 102.20 227.07 104.42 227.07C106.54 227.07 106.61 231.35 106.61 232.80ZM115.23 232.57C115.81 232.31 116.29 231.93 116.61 231.51C117.12 230.80 117.22 229.97 117.22 229.29C117.22 228.33 117.00 227.26 116.16 226.40C115.36 225.59 114.46 225.40 113.49 225.40C112.69 225.40 111.66 225.59 110.69 226.56L110.69 228.87C110.95 228.49 111.34 228.00 111.72 227.68C112.14 227.33 112.65 227.10 113.27 227.10C113.88 227.10 114.46 227.33 114.81 227.72C115.36 228.29 115.39 229.03 115.39 229.55C115.39 230.09 115.32 230.83 114.71 231.32C114.29 231.64 113.52 231.83 112.91 231.83L112.30 231.83L112.30 233.57L112.85 233.57C113.30 233.57 114.39 233.60 114.97 234.08C115.45 234.47 115.74 235.24 115.74 236.08C115.74 236.62 115.52 237.40 115.10 237.85C114.75 238.23 114.10 238.52 113.30 238.52C112.65 238.52 112.14 238.30 111.72 238.01C111.34 237.72 110.82 237.17 110.53 236.78L110.53 239.10C111.59 240.03 112.62 240.23 113.56 240.23C114.65 240.23 115.55 240 116.42 239.20C117.03 238.62 117.74 237.59 117.74 236.04C117.74 234.85 117.38 233.99 116.71 233.38C116.32 233.02 115.81 232.73 115.23 232.57ZM121.95 225.62L120.15 225.62L120.15 240L121.95 240L121.95 233.41L126.10 240L128.32 240L123.52 232.54L127.87 225.62L125.78 225.62L121.95 231.90ZM137.58 240L137.58 225.62L135.78 225.62L132.40 234.60C132.18 235.21 132.08 235.40 131.73 236.72C131.79 235.69 131.79 235.24 131.79 234.50L131.79 225.62L129.99 225.62L129.99 240L131.79 240L135.17 231.16C135.42 230.51 135.65 229.90 135.84 229.00C135.78 230.45 135.78 230.80 135.78 231.06L135.78 240ZM155.56 240L155.56 225.62L148.29 225.62L148.29 240L150.09 240L150.09 227.30L153.75 227.30L153.75 240ZM166.46 232.89C166.46 230.13 166.17 225.40 162.44 225.40C158.74 225.40 158.22 230.00 158.22 232.80C158.22 235.59 158.74 240.23 162.44 240.23C166.14 240.23 166.46 235.63 166.46 232.89ZM164.59 232.80C164.59 234.24 164.53 238.52 162.41 238.52C160.22 238.52 160.12 234.47 160.12 232.96C160.12 231.45 160.19 227.07 162.41 227.07C164.53 227.07 164.59 231.35 164.59 232.80ZM176.81 218.55L176.81 240L178.81 240L178.81 229.74L179.61 229.74C183.37 229.74 184.82 228.26 184.82 224.50C184.82 220.45 183.70 218.55 179.39 218.55ZM178.81 227.91L178.81 220.38L179.77 220.38C182.34 220.38 182.79 221.86 182.79 224.11C182.79 226.14 182.63 227.91 180.13 227.91ZM192.83 240L194.82 240L194.82 237.30C196.24 237.17 197.81 236.56 198.87 235.53C200.35 234.05 201.06 231.51 201.06 228.33C201.06 225.72 200.55 223.21 198.84 221.60C197.91 220.70 196.46 220.03 194.82 219.93L194.82 217.68L192.83 217.68L192.83 219.93C191.19 220.03 189.74 220.70 188.81 221.60C187.91 222.47 186.59 224.40 186.59 228.52C186.59 232.22 187.55 234.40 188.78 235.59C189.71 236.49 191.19 237.20 192.83 237.30ZM194.76 221.77C196.04 221.83 196.98 222.38 197.49 222.89C198.75 224.11 199.13 226.17 199.13 228.45C199.13 232.44 197.97 233.89 197.59 234.28C196.94 234.95 195.88 235.43 194.76 235.47ZM192.89 235.47C191.54 235.43 190.58 234.82 190.06 234.24C188.74 232.83 188.52 230.06 188.52 228.49C188.52 226.14 188.90 224.11 190.16 222.89C190.67 222.38 191.61 221.83 192.89 221.77Z" fill="#ffffff" style="fill: rgb(255, 255, 255);"></path></g><g id="SvgjsG1584" rel="mainfill" name="symbol" xmlns:name="symbol_mainfill" transform="translate(93.69000310897826,-22.35800037384033) scale(0.7)" fill="#ffffff"><g fill="#ffffff"><g fill="#ffffff"><path fill="#ffffff" d="M80.537,60.971c-0.801,0-1.465,0.575-1.604,1.333c-0.018,0.097-0.027,0.194-0.027,0.296    c0,0.476,0.205,0.902,0.527,1.199c0.291,0.268,0.676,0.431,1.104,0.431c0.424,0,0.809-0.163,1.1-0.431    c0.324-0.297,0.529-0.724,0.529-1.199c0-0.102-0.012-0.199-0.027-0.296C81.998,61.546,81.334,60.971,80.537,60.971z" style="fill: rgb(255, 255, 255);"></path><path fill="#ffffff" d="M38.76,61.671c-0.293-0.424-0.783-0.701-1.336-0.701c-0.555,0-1.045,0.277-1.338,0.701    c-0.129,0.187-0.223,0.401-0.266,0.633c-0.016,0.097-0.027,0.194-0.027,0.296c0,0.476,0.203,0.901,0.529,1.199    c0.289,0.267,0.676,0.431,1.102,0.431c0.424,0,0.811-0.164,1.1-0.431c0.326-0.298,0.529-0.724,0.529-1.199    c0-0.102-0.01-0.199-0.027-0.296C38.982,62.072,38.891,61.857,38.76,61.671z" style="fill: rgb(255, 255, 255);"></path><path fill="#ffffff" d="M78.563,41.781c-0.094,2.423-0.047,4.847-0.023,7.271c2.33,0,4.639,0.022,6.973-0.024    c-0.641-2.423-1.418-4.8-2.059-7.2C81.832,41.758,80.184,41.781,78.563,41.781z" style="fill: rgb(255, 255, 255);"></path><path d="M37.676,57.142h-0.027c-2.691,0.007-4.926,1.961-5.365,4.529c-0.053,0.302-0.082,0.612-0.082,0.929    c0,3.015,2.445,5.46,5.461,5.46s5.459-2.445,5.459-5.46c0-0.316-0.029-0.627-0.08-0.929C42.6,59.103,40.367,57.148,37.676,57.142z     M38.764,63.799c-0.291,0.267-0.676,0.431-1.102,0.431s-0.811-0.164-1.102-0.431c-0.324-0.298-0.527-0.724-0.527-1.199    c0-0.102,0.01-0.199,0.027-0.296c0.043-0.231,0.135-0.446,0.264-0.633c0.295-0.424,0.783-0.701,1.338-0.701    s1.043,0.277,1.338,0.701c0.129,0.187,0.221,0.401,0.264,0.633c0.018,0.097,0.029,0.194,0.029,0.296    C39.293,63.075,39.088,63.501,38.764,63.799z" fill="#ffffff" style="fill: rgb(255, 255, 255);"></path><path d="M35.463,57.142h-4.605v4.529h0.842c0.004-0.019,0.006-0.038,0.01-0.058C32.072,59.501,33.541,57.827,35.463,57.142z" fill="#ffffff" style="fill: rgb(255, 255, 255);"></path><polygon points="71.568,35.853 81.359,35.853 81.359,31.94 30.764,31.94 30.764,55.259 71.568,55.259   "></polygon><path d="M81.018,57.142c-3.016,0-5.461,2.443-5.461,5.458s2.445,5.46,5.461,5.46c3.014,0,5.459-2.445,5.459-5.46    S84.031,57.142,81.018,57.142z M82.117,63.799c-0.289,0.268-0.676,0.431-1.1,0.431c-0.428,0-0.813-0.163-1.104-0.431    c-0.322-0.297-0.527-0.724-0.527-1.199c0-0.102,0.012-0.199,0.027-0.296c0.141-0.758,0.803-1.333,1.604-1.333    c0.799,0,1.461,0.575,1.6,1.333c0.018,0.097,0.029,0.194,0.029,0.296C82.646,63.075,82.441,63.502,82.117,63.799z" fill="#ffffff" style="fill: rgb(255, 255, 255);"></path><path d="M92.322,58.836c-0.021-2.492,0.049-4.961-0.043-7.452c-0.797-0.365-1.6-0.73-2.4-1.103    c-0.559-0.26-1.117-0.524-1.67-0.796c-0.074-0.028-0.143-0.063-0.209-0.099c-1.133-0.607-1.096-2.136-1.529-3.217    c-0.447-1.833-1.184-3.615-1.633-5.444c-0.285-1.16-0.453-2.338-0.355-3.563c-3.258-0.045-6.496-0.022-9.73,0    c-0.01,0-0.02,0-0.031,0c0,0.003,0,0.005,0,0.006l-0.016-0.015v4.012l0.016,0.015c-0.012,5.317-0.055,10.642-0.002,15.961H39.865    c1.922,0.686,3.391,2.359,3.752,4.472c0.004,0.02,0.006,0.039,0.008,0.058h31.166c0.799-2.537,2.787-4.984,5.645-5.144    c3.156-0.459,6.082,1.966,6.768,4.983c2.08,0.022,4.16,0.022,6.242,0.022c0-0.869,0.021-1.761,0.021-2.629    C93.078,58.882,92.713,58.859,92.322,58.836z M79.02,49.052c-0.023-2.424-0.07-4.848,0.021-7.271c1.625,0,3.27-0.023,4.895,0.046    c0.639,2.4,1.416,4.777,2.057,7.2C83.66,49.074,81.352,49.052,79.02,49.052z" fill="#ffffff" style="fill: rgb(255, 255, 255);"></path></g><path d="M26.908,34.866c0-0.483-0.393-0.875-0.875-0.875H7.408c-0.484,0-0.875,0.392-0.875,0.875l0,0   c0,0.483,0.391,0.875,0.875,0.875h18.625C26.516,35.741,26.908,35.35,26.908,34.866L26.908,34.866z" fill="#ffffff" style="fill: rgb(255, 255, 255);"></path><path d="M26.908,40.866c0-0.483-0.393-0.875-0.875-0.875H7.408c-0.484,0-0.875,0.392-0.875,0.875l0,0   c0,0.483,0.391,0.875,0.875,0.875h18.625C26.516,41.741,26.908,41.35,26.908,40.866L26.908,40.866z" fill="#ffffff" style="fill: rgb(255, 255, 255);"></path><path d="M26.908,46.866c0-0.483-0.393-0.875-0.875-0.875H7.408c-0.484,0-0.875,0.392-0.875,0.875l0,0   c0,0.483,0.391,0.875,0.875,0.875h18.625C26.516,47.741,26.908,47.35,26.908,46.866L26.908,46.866z" fill="#ffffff" style="fill: rgb(255, 255, 255);"></path><path d="M26.908,52.866c0-0.483-0.393-0.875-0.875-0.875H7.408c-0.484,0-0.875,0.392-0.875,0.875l0,0   c0,0.483,0.391,0.875,0.875,0.875h18.625C26.516,53.741,26.908,53.35,26.908,52.866L26.908,52.866z" fill="#ffffff" style="fill: rgb(255, 255, 255);"></path></g></g></svg>